<svg width="100" height="100" viewBox="0 0 100 100" fill="none" xmlns="http://www.w3.org/2000/svg">
<circle cx="50" cy="50" r="50" fill="url(#paint0_linear)"/>
<path d="M63.2968 50.4944C62.8228 48.9664 61.1443 43.4337 59.5673 38.1977L56.6984 28.6777L49.0095 28.1858C40.5757 27.6448 40.655 27.4417 44.2799 40.181C45.1469 43.2322 44.692 43.751 41.1479 43.751C38.8655 43.751 37 44.1953 37 44.7364C37 46.139 56.5161 72.3428 57.1152 71.743C57.3879 71.4701 56.5478 67.7383 55.2481 63.4495C52.1019 53.0679 52.0369 53.2711 58.5037 53.2711C63.1604 53.2711 64.0068 52.7808 63.2968 50.4944Z" fill="white"/>
<defs>
<linearGradient id="paint0_linear" x1="80" y1="-9.00001" x2="14.5" y2="113.5" gradientUnits="userSpaceOnUse">
<stop stop-color="#EED644"/>
<stop offset="1" stop-color="#F9E06B"/>
</linearGradient>
</defs>
</svg>
