<svg width="100" height="100" viewBox="0 0 100 100" fill="none" xmlns="http://www.w3.org/2000/svg">
<circle cx="50" cy="50" r="50" fill="url(#paint0_linear)"/>
<path fill-rule="evenodd" clip-rule="evenodd" d="M64.057 35.1594C69.6378 40.7461 70.21 42.0932 70.21 49.6266C70.21 57.1601 69.6378 58.5073 64.057 64.0939C58.4762 69.6806 57.1306 70.2534 49.605 70.2534C42.0794 70.2534 40.7338 69.6806 35.153 64.0939C29.5722 58.5073 29 57.1601 29 49.6266C29 42.0932 29.5722 40.7461 35.153 35.1594C40.7338 29.5728 42.0794 29 49.605 29C57.1306 29 58.4762 29.5728 64.057 35.1594ZM36.925 49.6266C36.925 45.395 37.9822 42.2217 40.095 40.1067C42.2078 37.9917 45.3778 36.9333 49.605 36.9333C58.0578 36.9333 62.285 41.165 62.285 49.6266C62.285 58.0883 58.0578 62.32 49.605 62.32C41.1522 62.32 36.925 58.0883 36.925 49.6266Z" fill="white"/>
<defs>
<linearGradient id="paint0_linear" x1="80" y1="-9.00001" x2="14.5" y2="113.5" gradientUnits="userSpaceOnUse">
<stop stop-color="#9399A4"/>
<stop offset="1" stop-color="#A2A39E"/>
</linearGradient>
</defs>
</svg>
