<svg width="195" height="193" viewBox="0 0 195 193" fill="none" xmlns="http://www.w3.org/2000/svg">
<path fill-rule="evenodd" clip-rule="evenodd" d="M90.2758 0.311249C72.0435 2.04521 55.0905 8.17177 41.7144 17.8604C39.4697 19.4865 36.2843 21.7309 34.6362 22.8486C27.6805 27.5648 15.6518 42.4752 10.36 52.9414C5.86296 61.8345 1.7059 75.2528 0.46518 84.8768L0 88.4835H30.5782H61.1565L63.0523 83.6601C71.7153 61.6167 98.5975 53.1084 118.306 66.1728C123.9 69.8805 127.827 74.3769 130.851 80.5385C132.347 83.5859 133.729 86.6197 133.923 87.2812C134.25 88.4024 136.312 88.4835 164.623 88.4835H194.972L194.497 84.5333C193.606 77.1344 190.13 65.0304 186.779 57.661C178.367 39.1632 165.065 24.3497 146.983 13.3434C131.65 4.01068 108.154 -1.38973 90.2758 0.311249ZM92.1655 74.0732C84.8175 75.9219 78.2815 81.1877 75.2578 87.6948C72.6257 93.3597 72.6567 101.007 75.3335 106.458C77.7634 111.406 81.7628 115.399 86.7223 117.831C92.129 120.481 100.535 120.869 106.242 118.732C111.586 116.731 116.546 112.13 119.233 106.68C124.832 95.3259 119.719 81.6603 107.755 76.0078C103.093 73.8046 96.4911 72.9857 92.1655 74.0732ZM0.817503 106.729C0.817503 109.917 3.67949 122.347 5.78658 128.308C14.8921 154.07 34.6107 174.883 59.9976 185.53C85.6763 196.299 116.292 195.374 141.067 183.082C160.474 173.454 175.267 159.132 184.78 140.762C190.669 129.39 195.552 112.618 194.95 105.83C194.89 105.157 188.337 104.971 164.687 104.971H134.501L133.037 108.98C128.674 120.927 117.978 130.486 105.996 133.149C99.9766 134.487 89.5457 133.735 84.3083 131.586C73.9628 127.34 65.5234 118.549 62.4605 108.826L61.2459 104.971H31.0317H0.817503V106.729Z" fill="#E2E2E2"/>
</svg>
