<svg width="100" height="100" viewBox="0 0 100 100" fill="none" xmlns="http://www.w3.org/2000/svg">
<circle cx="50" cy="50" r="50" fill="url(#paint0_linear)"/>
<path fill-rule="evenodd" clip-rule="evenodd" d="M53.2444 34.7587C59.578 44.9102 64.65 57.1609 64.65 62.3049C64.65 70.5333 59.0058 75.92 50.385 75.92C41.7642 75.92 36.12 70.5333 36.12 62.3049C36.12 55.917 47.4274 31.4933 50.385 31.4933C50.8367 31.4933 52.1238 32.9626 53.2444 34.7587ZM43.1432 71.068C41.8958 70.0319 40.875 67.3631 40.875 65.1354V61.0862L44.4413 64.431C46.7094 66.5587 50.6022 67.9581 55.14 68.277C62.1219 68.7689 62.1901 68.8276 58.3766 70.995C53.7199 73.6447 46.2862 73.6796 43.1432 71.068Z" fill="white"/>
<defs>
<linearGradient id="paint0_linear" x1="80" y1="-9.00001" x2="14.5" y2="113.5" gradientUnits="userSpaceOnUse">
<stop stop-color="#4D93DE"/>
<stop offset="1" stop-color="#64B3E2"/>
</linearGradient>
</defs>
</svg>
