<svg width="100" height="100" viewBox="0 0 100 100" fill="none" xmlns="http://www.w3.org/2000/svg">
<circle cx="50" cy="50" r="50" fill="url(#paint0_linear)"/>
<path d="M49.605 33.9629C48.0628 33.9629 45.6314 32.1779 44.2033 29.9962C41.6546 26.1009 38.51 24.6793 38.51 27.4227C38.51 28.1874 39.5894 29.7106 40.9065 30.8054C42.6405 32.2461 42.8386 33.3584 41.6245 34.8245C40.3803 36.3239 40.878 37.5043 43.5424 39.3734C48.0993 42.569 51.125 42.5595 55.7263 39.3322C58.2084 37.5916 58.8646 36.2509 57.7678 35.1529C56.6694 34.0533 56.9404 32.3318 58.6078 29.782C60.0929 27.5131 60.3798 26.0296 59.3337 26.0296C58.3812 26.0296 56.4348 27.8145 55.0067 29.9962C53.5786 32.1779 51.1472 33.9629 49.605 33.9629Z" fill="white"/>
<path d="M39.1012 73.6295C44.7993 73.6295 49.0011 53.5423 44.4538 48.0382C43.3649 46.7197 40.5467 44.4476 38.193 42.991C34.0831 40.446 33.8152 40.4793 31.4568 43.851C30.0017 45.9295 29 50.7292 29 55.6145C29 62.177 29.84 64.8648 33.1036 68.7474C35.3606 71.432 38.0599 73.6295 39.1012 73.6295Z" fill="white"/>
<path d="M66.1064 68.7474C69.3937 64.8363 70.21 62.1897 70.21 55.4368C70.21 49.6852 69.3287 45.9914 67.4362 43.8082C64.7275 40.684 64.5563 40.6777 60.0771 43.5115C53.8782 47.4321 52.8273 49.4535 52.7988 57.5185C52.7734 64.6934 56.8278 73.6295 60.1088 73.6295C61.1501 73.6295 63.8494 71.432 66.1064 68.7474Z" fill="white"/>
<defs>
<linearGradient id="paint0_linear" x1="80" y1="-9.00001" x2="14.5" y2="113.5" gradientUnits="userSpaceOnUse">
<stop stop-color="#97BE2E"/>
<stop offset="1" stop-color="#ACC635"/>
</linearGradient>
</defs>
</svg>
