<svg width="100" height="100" viewBox="0 0 100 100" fill="none" xmlns="http://www.w3.org/2000/svg">
<circle cx="50" cy="50" r="50" fill="url(#paint0_linear)"/>
<path fill-rule="evenodd" clip-rule="evenodd" d="M64.057 35.1595C69.6378 40.7461 70.21 42.0932 70.21 49.6267C70.21 57.1602 69.6378 58.5072 64.057 64.0939C58.4762 69.6806 57.1306 70.2534 49.605 70.2534C42.0794 70.2534 40.7337 69.6806 35.153 64.0939C29.5722 58.5072 29 57.1602 29 49.6267C29 42.0932 29.5722 40.7461 35.153 35.1595C40.7337 29.5728 42.0794 29 49.605 29C57.1306 29 58.4762 29.5728 64.057 35.1595ZM50.7937 37.3713C49.2674 35.6847 48.02 33.8235 48.02 33.238C48.02 32.6525 49.8744 32.1733 52.141 32.1733C54.715 32.1733 58.286 34.1995 61.651 37.568C66.2427 42.1646 67.04 44.0591 67.04 50.3835C67.04 60.2224 60.7919 67.08 51.8287 67.08H45.8818L49.7255 62.9848C52.8828 59.6211 53.5675 57.2459 53.5675 49.6648C53.5675 43.1055 52.7655 39.5529 50.7937 37.3713Z" fill="white"/>
<defs>
<linearGradient id="paint0_linear" x1="80" y1="-9.00001" x2="14.5" y2="113.5" gradientUnits="userSpaceOnUse">
<stop stop-color="#5D5C68"/>
<stop offset="1" stop-color="#6A6F7F"/>
</linearGradient>
</defs>
</svg>
