<svg width="100" height="100" viewBox="0 0 100 100" fill="none" xmlns="http://www.w3.org/2000/svg">
<circle cx="50" cy="50" r="50" fill="url(#paint0_linear)"/>
<path fill-rule="evenodd" clip-rule="evenodd" d="M52.8782 31.5056C51.485 35.174 51.7592 35.6817 55.6076 36.5607C64.4804 38.5869 70.188 46.2537 70.188 56.1466C70.188 61.9284 69.2861 63.9942 64.799 68.4861C60.0836 73.2064 58.4035 73.8807 51.3519 73.8807C44.6964 73.8807 42.3966 73.0779 38.144 69.2746L32.996 64.6701L42.9863 65.1969C51.1934 65.6284 53.5249 65.1747 56.0356 62.6614C59.5685 59.1247 59.9442 55.0264 57.0944 51.1232C55.205 48.5369 54.3967 48.5528 42.4331 51.4135C35.4686 53.0779 29.5344 54.2346 29.2459 53.9823C27.691 52.6289 33.6569 44.9732 42.9831 36.3529C48.7921 30.9836 53.7437 26.7789 53.9862 27.009C54.2287 27.2391 53.7294 29.2621 52.8782 31.5056ZM36.7936 48.1926C35.4416 47.742 36.0265 46.3695 38.5974 43.9736C40.9353 41.7936 42.6375 41.1208 43.0084 42.2347C43.8231 44.6829 39.2932 49.0272 36.7936 48.1926Z" fill="white"/>
<defs>
<linearGradient id="paint0_linear" x1="80" y1="-9.00001" x2="14.5" y2="113.5" gradientUnits="userSpaceOnUse">
<stop stop-color="#0A6CC8"/>
<stop offset="1" stop-color="#017FC7"/>
</linearGradient>
</defs>
</svg>
