<svg width="100" height="100" viewBox="0 0 100 100" fill="none" xmlns="http://www.w3.org/2000/svg">
<circle cx="50" cy="50" r="50" fill="url(#paint0_linear)"/>
<path fill-rule="evenodd" clip-rule="evenodd" d="M53.9436 32.7442C56.0136 36.2523 57.4829 37.1408 60.0839 36.4601C62.967 35.7065 63.3617 36.1016 62.6088 38.9877C61.9289 41.5914 62.8164 43.0622 66.3209 45.1344C72.0871 48.5426 72.0855 49.666 66.3113 52.6537C62.7736 54.4863 61.9035 55.8317 62.5819 58.4291C63.3284 61.2883 62.9496 61.6501 60.1457 60.7599C57.5225 59.9269 56.3021 60.7203 54.3256 64.5457C52.9514 67.2082 51.1493 69.3867 50.3219 69.3867C49.4945 69.3867 47.6924 67.2082 46.3182 64.5457C44.3417 60.7203 43.1212 59.9269 40.4981 60.7599C37.6942 61.6501 37.3154 61.2883 38.0619 58.4291C38.7403 55.8317 37.8701 54.4863 34.3324 52.6537C28.5583 49.666 28.5567 48.5426 34.3229 45.1344C37.8273 43.0622 38.7149 41.5914 38.0349 38.9877C37.282 36.1016 37.6768 35.7065 40.5599 36.4601C43.1609 37.1408 44.6302 36.2523 46.7002 32.7442C48.1964 30.2087 49.8258 28.1333 50.3219 28.1333C50.818 28.1333 52.4473 30.2087 53.9436 32.7442ZM42.0418 48.7822L45.7856 44.8314C47.8445 42.6592 49.886 40.8822 50.3219 40.8822C50.7578 40.8822 52.823 42.6831 54.9088 44.8853L58.705 48.8901L55.3051 52.0602C53.4363 53.804 51.9069 56.0523 51.9069 57.0567C51.9069 58.061 49.6879 56.6092 46.9744 53.8326L42.0418 48.7822Z" fill="white"/>
<defs>
<linearGradient id="paint0_linear" x1="80" y1="-9.00001" x2="14.5" y2="113.5" gradientUnits="userSpaceOnUse">
<stop stop-color="#EC8EE5"/>
<stop offset="1" stop-color="#F3A6E7"/>
</linearGradient>
</defs>
</svg>
