<svg width="100" height="100" viewBox="0 0 100 100" fill="none" xmlns="http://www.w3.org/2000/svg">
<circle cx="50" cy="50" r="50" fill="url(#paint0_linear)"/>
<path d="M56.8382 30.9179C54.8553 30.9179 52.7044 30.3879 52.0578 29.7406C51.4111 29.0948 47.3694 28.4379 43.0756 28.2824L35.2694 28V39.8651C35.2694 47.3732 34.6878 51.3716 33.6845 50.7512C32.8127 50.2118 32.0884 48.2062 32.0757 46.2943C32.0551 43.4684 31.7634 43.2637 30.5144 45.1979C28.0973 48.9408 28.6711 59.1954 31.5415 63.581C38.9942 74.9669 59.9939 75.0891 67.3895 63.7904C70.5516 58.9606 72.3839 46.8353 71.0382 39.6557C70.1918 35.1337 69.2851 34.0912 66.1991 34.0912C64.1101 34.0912 61.9609 33.3772 61.422 32.5045C60.8831 31.6319 58.821 30.9179 56.8382 30.9179Z" fill="white"/>
<defs>
<linearGradient id="paint0_linear" x1="80" y1="-9.00001" x2="14.5" y2="113.5" gradientUnits="userSpaceOnUse">
<stop stop-color="#D04263"/>
<stop offset="1" stop-color="#E5464B"/>
</linearGradient>
</defs>
</svg>
