<svg width="100" height="100" viewBox="0 0 100 100" fill="none" xmlns="http://www.w3.org/2000/svg">
<circle cx="50" cy="50" r="50" fill="url(#paint0_linear)"/>
<path d="M56.1871 44.5074C53.5703 44.5074 53.09 43.5887 53.434 39.246C53.6622 36.3519 53.2121 32.8438 52.4339 31.4508C51.2261 29.2913 50.8473 29.4515 49.8662 32.5471C49.2337 34.5432 45.2253 39.5078 40.96 43.5808C31.4056 52.7041 30.5624 58.7668 37.8376 66.0496C41.613 69.829 43.7417 70.6573 49.3288 70.5256C55.7639 70.3733 55.8844 70.2907 51.2942 69.1912C43.9272 67.4284 42.7146 66.213 42.7146 60.5978C42.7146 52.3931 49.2829 48.5677 53.8715 54.102C55.4977 56.0631 56.1697 56.144 57.2111 54.4987C58.1573 53.0056 58.5741 53.3118 58.7279 55.6141C58.8452 57.3594 58.8246 59.6807 58.6835 60.7708C58.5409 61.8624 59.0829 62.7541 59.8865 62.7541C62.413 62.7541 65.0251 58.4812 65.9365 52.8596C66.6323 48.5661 65.984 46.4796 62.8093 42.8017C59.3952 38.8446 58.8452 38.6288 59.0813 41.3341C59.2731 43.5411 58.3919 44.5074 56.1871 44.5074Z" fill="white"/>
<defs>
<linearGradient id="paint0_linear" x1="80" y1="-9.00001" x2="14.5" y2="113.5" gradientUnits="userSpaceOnUse">
<stop stop-color="#FB9C50"/>
<stop offset="1" stop-color="#FBAD46"/>
</linearGradient>
</defs>
</svg>
