<svg width="100" height="100" viewBox="0 0 100 100" fill="none" xmlns="http://www.w3.org/2000/svg">
<circle cx="50" cy="50" r="50" fill="url(#paint0_linear)"/>
<path d="M55.449 43.8087C59.207 42.2617 64.7324 38.8996 67.728 36.3355C74.0458 30.9282 72.9966 30.6838 62.0775 35.017C57.7187 36.748 50.079 38.8885 45.099 39.7738C33.5507 41.8286 28 46.625 28 54.5504C28 62.8043 33.6901 68.0513 42.5899 68.0053C46.9835 67.9815 50.8018 66.8423 53.36 64.7908L57.3225 61.6127L52.9637 62.6187C47.0041 63.9943 47.4717 61.2715 53.7562 58.0046L58.9075 55.3247L53.7562 56.2561C46.3717 57.5889 47.4162 55.047 55.6456 51.6595C59.513 50.0681 63.4723 47.8055 64.4455 46.6329C65.8942 44.8844 64.8592 44.9067 58.7426 46.7488C50.228 49.3144 48.6018 49.4842 48.6113 47.8103C48.6145 47.155 51.691 45.3541 55.449 43.8087Z" fill="white"/>
<defs>
<linearGradient id="paint0_linear" x1="80" y1="-9.00001" x2="14.5" y2="113.5" gradientUnits="userSpaceOnUse">
<stop stop-color="#93AADC"/>
<stop offset="1" stop-color="#9FBAEB"/>
</linearGradient>
</defs>
</svg>
