<svg width="100" height="100" viewBox="0 0 100 100" fill="none" xmlns="http://www.w3.org/2000/svg">
<circle cx="50" cy="50" r="50" fill="url(#paint0_linear)"/>
<path fill-rule="evenodd" clip-rule="evenodd" d="M70.2037 47.7988C70.2037 42.3883 69.1893 40.305 64.0507 35.1594C58.47 29.5728 57.1242 29 49.5987 29C42.0731 29 40.7274 29.5728 35.1466 35.1594C29.8749 40.4383 28.9953 42.3121 29 48.2494C29.0127 62.6722 38.911 70.7008 56.3777 70.4548C66.5027 70.312 70.2481 69.0697 66.8641 66.9753C65.165 65.9249 65.2822 64.6096 67.4885 59.9797C68.9816 56.8444 70.2037 51.3625 70.2037 47.7988ZM38.5037 45.4664C38.5037 46.6675 39.6036 48.5652 40.9477 49.6822C42.8767 51.2847 43.7976 51.3038 45.3065 49.7695C46.8059 48.2479 46.5539 47.3324 44.1447 45.5537C40.2757 42.6945 38.5037 42.6676 38.5037 45.4664ZM52.7766 49.6631C50.7431 48.3779 50.8572 47.8258 53.5691 45.7726C57.9675 42.4454 59.413 42.7072 58.8234 46.7263C58.2322 50.7421 56.1131 51.7718 52.7766 49.6631Z" fill="white"/>
<defs>
<linearGradient id="paint0_linear" x1="80" y1="-9.00001" x2="14.5" y2="113.5" gradientUnits="userSpaceOnUse">
<stop stop-color="#546BAF"/>
<stop offset="1" stop-color="#7472D1"/>
</linearGradient>
</defs>
</svg>
