<svg width="100" height="100" viewBox="0 0 100 100" fill="none" xmlns="http://www.w3.org/2000/svg">
<circle cx="50" cy="50" r="50" fill="url(#paint0_linear)"/>
<path d="M64.1678 62.3257C67.1967 57.6657 69.0655 43.906 67.677 36.4963C66.6579 31.0556 66.3836 30.8621 59.9564 31.0398C47.278 31.3904 37.5826 35.5523 34.2018 42.0973C29.4484 51.2999 33.0337 65.9813 38.8554 61.1452C40.3167 59.9314 41.4263 56.5708 41.4548 53.2721C41.4992 48.171 41.7433 47.8299 43.593 50.267C46.1147 53.5911 47.744 52.3312 47.744 47.0572C47.744 44.0536 48.2132 43.5507 49.7902 44.8612C51.3103 46.1226 52.3342 45.7657 53.767 43.4682C56.6803 38.797 59.0831 39.6918 56.8419 44.6137C55.268 48.071 55.3156 48.985 57.1019 49.58C58.4317 50.0243 57.1811 51.2697 53.9129 52.758C49.0374 54.9778 48.8694 55.265 52.1028 55.8346C56.7564 56.6549 56.7231 59.4157 52.06 59.4157C47.687 59.4157 41.4041 63.5617 41.4041 66.4479C41.4041 69.6831 50.429 70.7684 56.4362 68.2551C59.3653 67.0302 62.8459 64.3614 64.1678 62.3257Z" fill="white"/>
<defs>
<linearGradient id="paint0_linear" x1="80" y1="-9.00001" x2="14.5" y2="113.5" gradientUnits="userSpaceOnUse">
<stop stop-color="#5FBC52"/>
<stop offset="1" stop-color="#5CBF6B"/>
</linearGradient>
</defs>
</svg>
