<svg width="100" height="100" viewBox="0 0 100 100" fill="none" xmlns="http://www.w3.org/2000/svg">
<circle cx="50" cy="50" r="50" fill="url(#paint0_linear)"/>
<path d="M55.62 66.32C74.9126 66.32 73.6572 68.9031 65.4627 46.09C60.8139 33.1459 60.6999 33 55.314 33C52.3184 33 49.5526 33.8933 49.169 34.9833C48.7855 36.075 46.3112 42.9056 43.6706 50.1646C41.0316 57.4235 38.8712 64.0288 38.8712 64.8412C38.8712 65.6615 46.3287 66.32 55.62 66.32Z" fill="white"/>
<path d="M30.0602 67.9067C32.9069 67.9067 33.0242 67.71 37.8965 54.7516C41.664 44.7303 41.7258 44.1066 38.9394 44.1066C36.7442 44.1066 34.9182 46.8833 31.8766 54.85C27.1073 67.3466 27.0297 67.9067 30.0602 67.9067Z" fill="white"/>
<defs>
<linearGradient id="paint0_linear" x1="80" y1="-9.00001" x2="14.5" y2="113.5" gradientUnits="userSpaceOnUse">
<stop stop-color="#DB7747"/>
<stop offset="1" stop-color="#D39160"/>
</linearGradient>
</defs>
</svg>
