<svg width="100" height="100" viewBox="0 0 100 100" fill="none" xmlns="http://www.w3.org/2000/svg">
<circle cx="50" cy="50" r="50" fill="url(#paint0_linear)"/>
<path d="M49.7352 47.3359L49.2471 40.8259C48.8239 35.1773 48.0774 34.0302 43.6077 32.1579L38.4564 30V35.9754C38.4564 41.2622 39.1078 42.2618 44.0958 44.6434L49.7352 47.3359Z" fill="white"/>
<path d="M59.7794 43.8707C63.0857 42.3633 63.8164 40.9258 63.8164 35.9373C63.8164 29.094 63.241 28.8116 57.0801 32.6355C53.7658 34.6934 52.7213 36.5831 52.7213 40.5275C52.7213 46.184 53.6962 46.6457 59.7794 43.8707Z" fill="white"/>
<path d="M41.72 54.1317C47.418 50.7616 47.5004 49.9064 42.3444 47.5549C37.3358 45.2701 37.0996 45.2859 31.5394 48.3022L27 50.7632L32.0308 53.8254C36.846 56.7576 37.2582 56.7703 41.72 54.1317Z" fill="white"/>
<path d="M68.955 54.2411C74.382 51.4312 74.4581 49.9111 69.2894 47.5549C64.2697 45.2654 64.0558 45.2812 58.3719 48.361L53.72 50.8821L59.1517 53.6921C63.9749 56.1896 65.0733 56.2515 68.955 54.2411Z" fill="white"/>
<path d="M44.9485 68.3767C48.5433 66.2522 49.5514 64.5132 49.5514 60.4434C49.5514 54.8076 49.3278 54.6949 42.8151 57.0765C39.0729 58.4458 38.4564 59.5501 38.4564 64.8845C38.4564 71.9674 38.6766 72.0863 44.9485 68.3767Z" fill="white"/>
<path d="M63.8164 65.5874C63.8164 61.0876 62.9573 59.6295 59.1406 57.6541C52.8323 54.3887 52.7213 54.4426 52.7213 60.7449C52.7213 65.2447 53.5804 66.7028 57.3971 68.6782C63.7054 71.9436 63.8164 71.8896 63.8164 65.5874Z" fill="white"/>
<defs>
<linearGradient id="paint0_linear" x1="80" y1="-9.00001" x2="14.5" y2="113.5" gradientUnits="userSpaceOnUse">
<stop stop-color="#77CFC0"/>
<stop offset="1" stop-color="#86D9CF"/>
</linearGradient>
</defs>
</svg>
