<svg width="186" height="184" viewBox="0 0 186 184" fill="none" xmlns="http://www.w3.org/2000/svg">
<ellipse cx="93" cy="92" rx="93" ry="92" fill="#E5BF44"/>
<circle cx="93" cy="92" r="79" fill="#D6A125"/>
<circle cx="93" cy="92" r="73" fill="url(#paint0_linear)"/>
<path fill-rule="evenodd" clip-rule="evenodd" d="M78.4347 7.88076C67.7062 9.76911 56.0087 14.3333 46.9295 20.1729C28.4531 32.0569 14.7702 51.5176 9.86938 72.8808C5.11979 93.587 8.18645 115.175 18.5382 133.909C22.4699 141.023 27.2726 147.152 34.039 153.689C45.7501 165.004 58.9295 172.014 75.9268 175.966C80.406 177.008 82.6271 177.165 93 177.17C104.173 177.176 105.331 177.08 111.386 175.657C146.044 167.515 170.452 142.021 177.352 106.756C177.835 104.293 179 100.498 179 91.5C178.5 82 177.918 79.981 176.844 75.1718C173.45 59.9751 167.683 48.1285 158.147 36.7631C147.217 23.736 131.536 13.7897 115.111 9.46558C104.12 6.57182 89.4678 5.93875 78.4347 7.88076ZM99.7751 13.2748C135.257 16.3913 163.7 41.9946 170.81 77.2168C172.642 86.297 172.57 98.7355 170.631 107.84C168.304 118.767 164.686 127.375 158.441 136.837C154.364 143.016 143.792 153.548 137.444 157.756C118.81 170.108 96.4965 174.228 75.1138 169.265C60.8499 165.954 47.9203 158.741 37.4276 148.241C26.368 137.173 19.5003 124.874 15.9317 109.745C14.2818 102.751 13.6553 89.2959 14.6363 81.9241C19.5333 45.1257 49.0065 16.6542 85.6829 13.2916C92.4022 12.6759 92.9453 12.6748 99.7751 13.2748ZM57.1393 39.5821C56.4504 41.3772 57.5106 45.916 59.5068 49.7182C62.4547 55.3328 67.1843 61.5122 73.2211 67.6374L78.4699 72.9631L75.2927 75.994C71.6694 79.4499 68.3192 84.4726 66.1843 89.6499C62.7409 98 62.2136 103.676 62.155 132.996C62.1165 152.24 62.2537 157.66 62.7832 157.838C63.3079 158.015 63.4607 155.945 63.4607 148.66V139.254L66.7436 138.63C72.7198 137.494 74.4645 135.102 70.6423 133.285C69.5247 132.753 67.4515 132.207 66.0352 132.07L63.4607 131.822V129.547V127.273L66.7756 126.656C74.8233 125.159 74.6466 121.201 66.4883 120.242L63.4607 119.886L63.4623 114.947C63.465 106.429 64.7409 97.5913 66.7978 91.8509C68.9713 85.7848 73.7312 78.6173 77.6455 75.5171L79.7485 73.852L82.5848 75.8054C84.1447 76.8797 85.6022 77.7588 85.8233 77.7588C86.9371 77.7588 85.8737 76.5615 82.5664 74.0921C78.9355 71.381 70.2515 62.9604 69.2612 61.1902C68.3881 59.6309 69.8959 46.9382 71.1182 45.5528C71.6081 44.9978 78.516 49.4244 84.0569 53.8434C88.9333 57.7328 97.1924 66.0228 99.9176 69.7642C101.166 71.478 102.377 72.8808 102.608 72.8808C103.407 72.8808 103.021 71.716 101.608 69.8634L100.189 68.0027L102.014 68.0092C107.376 68.0282 115.367 71.6531 119.062 75.7431C122.617 79.6775 123.743 82.3957 126.535 93.7967C127.304 96.9355 128.47 100.143 129.272 101.325C131.092 104.007 131.128 108.111 129.332 108.111C128.904 108.111 128.745 108.6 128.904 109.432C129.578 112.959 122.918 121.42 117.307 124.165C114.424 125.575 113.905 126.164 114.965 126.818C115.886 127.388 119.202 134.377 120.679 138.862C122.295 143.772 123.037 151.698 122.052 153.538C121.281 154.978 119.031 155.113 117.105 153.834C116.367 153.345 113.759 150.979 111.309 148.578C108.859 146.176 106.695 144.37 106.501 144.565C106.017 145.048 109.054 148.791 112.119 151.489C114.919 153.954 116.035 156.065 116.035 158.896C116.035 160.166 116.255 160.699 116.713 160.537C117.134 160.388 117.35 159.436 117.284 158.016C117.179 155.76 117.196 155.738 118.762 156.082C121.273 156.634 122.389 155.966 123.405 153.306C124.235 151.132 124.266 150.352 123.673 146.421C122.879 141.149 120.383 133.378 118.171 129.292C117.297 127.676 116.641 126.314 116.715 126.264C116.788 126.214 118.251 125.256 119.965 124.135C123.815 121.618 127.151 117.914 128.786 114.344C132.539 106.15 132.792 104.042 130.446 100.498C129.524 99.1051 128.295 95.5182 127.056 90.6098C125.988 86.374 124.389 81.4677 123.505 79.7073C120.468 73.6634 115.242 69.8081 107.037 67.561L103.32 66.5425L100.822 62.1962C96.5127 54.6981 88.3734 45.0287 84.1995 42.4493C81.2884 40.6499 80.613 41.3404 80.9317 45.7913C81.0802 47.8721 81.1285 49.5745 81.0379 49.5745C80.948 49.5745 78.8466 48.2125 76.368 46.5485C66.8764 40.174 58.1285 37.0049 57.1393 39.5821ZM94.084 54.4526C96.7442 57.91 101.401 65.2238 101.401 65.9453C101.401 66.1827 100.902 66.3767 100.292 66.3767C99.6065 66.3767 97.2233 64.381 94.0477 61.1485C89.9165 56.9425 88.9783 55.6976 89.2509 54.7799C89.6211 53.5333 90.9924 51.2005 91.355 51.2005C91.4797 51.2005 92.7079 52.664 94.084 54.4526ZM118.505 89.2618C118.012 89.9653 117.662 91.5989 117.663 93.1913C117.667 98.1637 120.836 101.136 123.268 98.4477C124.641 96.9306 124.5 91.3388 123.042 89.4851C121.66 87.7274 119.649 87.6282 118.505 89.2618ZM122.962 92.8797C122.738 94.0293 121.642 94.2033 121.239 93.1523C121.046 92.651 121.047 91.7415 121.241 91.1312C121.586 90.0444 121.608 90.0428 122.353 91.0618C122.771 91.6331 123.044 92.4515 122.962 92.8797ZM108.64 99.4347C108 99.6927 106.78 100.817 105.93 101.933C104.557 103.733 104.382 104.404 104.382 107.892C104.382 111.015 104.611 112.13 105.5 113.32C109.219 118.308 114.519 118.086 117.201 112.83C120.884 105.609 115.237 96.7729 108.64 99.4347Z" fill="#A75919"/>
<defs>
<linearGradient id="paint0_linear" x1="168" y1="87.5" x2="14.5" y2="88" gradientUnits="userSpaceOnUse">
<stop stop-color="#E5BF44"/>
<stop offset="1" stop-color="#F1DD9C" stop-opacity="0.64"/>
</linearGradient>
</defs>
</svg>
