<svg width="100" height="100" viewBox="0 0 100 100" fill="none" xmlns="http://www.w3.org/2000/svg">
<circle cx="50" cy="50" r="50" fill="url(#paint0_linear)"/>
<path fill-rule="evenodd" clip-rule="evenodd" d="M61.1301 30.3591C71.897 35.9331 75.0971 46.724 69.3103 57.9417C67.673 61.1151 65.5491 65.6752 64.5902 68.0742C62.9085 72.2773 56.4369 74.4701 56.4369 70.8382C56.4369 69.8893 55.1467 70.0448 53.2669 71.219C50.9243 72.6835 49.371 72.7469 47.3152 71.4617C45.3609 70.24 43.749 70.2177 41.9009 71.3839C38.5233 73.5164 34.2612 70.2542 34.2121 65.5006C34.193 63.6426 32.7824 60.3392 31.0769 58.1575C27.246 53.2547 26.9337 42.8002 30.4699 37.7482C36.7623 28.7534 51.273 25.2564 61.1301 30.3591ZM42.8582 57.6339C33.3165 53.0786 32.5367 44.2567 41.2098 38.962C47.1203 35.3539 50.0494 35.2191 57.2247 38.2195C67.7396 42.6177 66.3004 54.9112 54.8694 58.3399C49.3678 59.9901 47.5736 59.8838 42.8582 57.6339Z" fill="white"/>
<defs>
<linearGradient id="paint0_linear" x1="80" y1="-9.00001" x2="14.5" y2="113.5" gradientUnits="userSpaceOnUse">
<stop stop-color="#AB63C8"/>
<stop offset="1" stop-color="#BB61D0"/>
</linearGradient>
</defs>
</svg>
