<svg width="100" height="100" viewBox="0 0 100 100" fill="none" xmlns="http://www.w3.org/2000/svg">
<circle cx="50" cy="50" r="50" fill="url(#paint0_linear)"/>
<path d="M69.029 45.6064C69.029 39.5612 68.189 37.3811 64.3961 33.5842C60.5303 29.7143 58.4951 28.9559 52.1123 29.0019C38.5479 29.1019 31.0175 36.5878 31.0001 49.9936C30.9906 56.3577 31.8243 58.4663 36.275 63.3279C40.8715 68.3481 42.7101 69.197 50.3577 69.8316C55.1952 70.2331 60.2513 69.9459 61.5954 69.1906C63.2057 68.2862 61.0422 67.7896 55.2284 67.7325C47.3684 67.6531 45.934 67.0962 41.8748 62.5504C33.0115 52.6194 36.9787 38.4569 49.318 35.9864C59.2036 34.0078 66.9812 46.6361 60.1118 53.5127C54.6388 58.9931 43.8418 53.097 47.8122 46.7964C50.4227 42.6536 55.4503 43.2692 56.0922 47.8119C56.5487 51.0455 56.1081 51.466 53.0902 50.6774C50.6335 50.0332 50.0582 50.2569 51.2057 51.4057C53.5895 53.792 59.519 51.4517 59.519 48.126C59.519 44.7797 54.718 40.0531 51.3182 40.0531C43.5121 40.0531 41.0252 53.6079 47.8455 58.9772C53.6323 63.5341 58.9262 63.1026 64.3961 57.6286C68.189 53.8317 69.029 51.6516 69.029 45.6064Z" fill="white"/>
<defs>
<linearGradient id="paint0_linear" x1="80" y1="-9.00001" x2="14.5" y2="113.5" gradientUnits="userSpaceOnUse">
<stop stop-color="#F77374"/>
<stop offset="1" stop-color="#FD9A8E"/>
</linearGradient>
</defs>
</svg>
