<svg width="100" height="100" viewBox="0 0 100 100" fill="none" xmlns="http://www.w3.org/2000/svg">
<circle cx="50" cy="50" r="50" fill="url(#paint0_linear)"/>
<path d="M58.5889 46.9155C59.6793 45.5874 60.5701 42.138 60.5701 39.2502V34H51.9398C43.3792 34 43.2508 34.0714 36.0898 42.8726C26.3071 54.8932 26.6495 60.9733 37.1089 60.9733C40.3328 60.9733 54.853 51.4708 58.5889 46.9155Z" fill="white"/>
<path d="M66.4441 51.8151C70.4098 56.2022 72.3657 52.867 70.0595 45.6493C67.254 36.8687 65.9021 36.1753 64.8021 42.9567C64.0968 47.3121 64.5406 49.708 66.4441 51.8151Z" fill="white"/>
<path d="M58.3067 62.4902C64.3076 58.7774 64.1237 59.0614 62.778 55.5501C61.5021 52.2197 61.0234 52.3514 52.1664 58.4886C44.6504 63.696 44.6075 63.7738 48.7143 64.8067C51.5942 65.5302 54.544 64.8178 58.3067 62.4902Z" fill="white"/>
<defs>
<linearGradient id="paint0_linear" x1="80" y1="-9.00001" x2="14.5" y2="113.5" gradientUnits="userSpaceOnUse">
<stop stop-color="#C7B78A"/>
<stop offset="1" stop-color="#D4C98F"/>
</linearGradient>
</defs>
</svg>
