<svg width="100" height="100" viewBox="0 0 100 100" fill="none" xmlns="http://www.w3.org/2000/svg">
<circle cx="50" cy="50" r="50" fill="url(#paint0_linear)"/>
<path fill-rule="evenodd" clip-rule="evenodd" d="M66.647 38.6342C69.7996 43.9321 72.3799 48.8793 72.3799 49.6266C72.3799 50.374 69.7996 55.3212 66.647 60.6191L60.9141 70.2534H50.19H39.4659L33.7329 60.6191C30.5803 55.3212 28 50.374 28 49.6266C28 48.8793 30.5803 43.9321 33.7329 38.6342L39.4659 29H50.19H60.9141L66.647 38.6342ZM41.9939 58.1074C38.3294 54.7881 38.1726 45.3427 41.7182 41.4221C45.034 37.7537 54.4695 37.5966 58.386 41.1459C62.0506 44.4652 62.2074 53.9106 58.6617 57.8313C55.3459 61.4997 45.9104 61.6568 41.9939 58.1074Z" fill="white"/>
<defs>
<linearGradient id="paint0_linear" x1="80" y1="-9.00001" x2="14.5" y2="113.5" gradientUnits="userSpaceOnUse">
<stop stop-color="#52899E"/>
<stop offset="1" stop-color="#56A0A7"/>
</linearGradient>
</defs>
</svg>
